<?xml version="1.0" standalone="no"?>
<!DOCTYPE svg PUBLIC "-//W3C//DTD SVG 20010904//EN"
 "http://www.w3.org/TR/2001/REC-SVG-20010904/DTD/svg10.dtd">
<svg version="1.0" xmlns="http://www.w3.org/2000/svg"
 width="545.000000pt" height="545.000000pt" viewBox="0 0 545.000000 545.000000"
 preserveAspectRatio="xMidYMid meet">
<metadata>
Created by potrace 1.14, written by Peter Selinger 2001-2017
</metadata>
<g transform="translate(0.000000,545.000000) scale(0.100000,-0.100000)"
fill="#000000" stroke="none">
<path d="M1270 5110 c0 -5 5 -10 11 -10 5 0 7 5 4 10 -3 6 -8 10 -11 10 -2 0
-4 -4 -4 -10z"/>
<path d="M1236 5095 c19 -14 18 -14 -3 -15 -13 0 -23 4 -23 9 0 12 -85 9 -97
-3 -5 -5 -3 -6 5 -2 6 4 12 2 12 -3 0 -6 -5 -11 -11 -11 -5 0 -7 -6 -3 -12 6
-10 5 -10 -7 -1 -13 10 -16 10 -16 -2 0 -8 4 -15 9 -15 4 0 8 -4 8 -9 0 -5 -6
-8 -12 -7 -18 2 -17 -13 1 -55 9 -19 21 -34 28 -32 6 2 14 -1 18 -6 3 -6 0 -9
-8 -5 -8 3 -20 -3 -28 -13 -12 -16 -12 -17 2 -6 9 7 19 10 22 6 4 -3 -1 -12
-11 -20 -15 -13 -15 -14 8 -9 14 3 19 3 12 0 -10 -5 -10 -9 -1 -20 6 -7 9 -19
6 -26 -3 -8 -6 -6 -6 5 -1 10 -5 16 -11 12 -5 -3 -6 -13 -3 -22 5 -12 3 -14
-8 -8 -8 4 -11 5 -7 0 4 -4 3 -17 -3 -29 -8 -17 -6 -16 10 4 l20 25 -3 -30
c-3 -19 -9 -29 -17 -27 -9 2 -8 -3 4 -16 9 -10 15 -21 12 -23 -2 -3 5 -5 15
-6 11 -1 20 2 20 8 0 5 -5 8 -12 6 -13 -2 -19 51 -7 59 4 2 6 -4 4 -13 -1 -10
5 -28 15 -41 19 -24 36 -30 24 -9 -4 6 -3 8 1 4 16 -14 13 -33 -5 -33 -10 0
-16 4 -14 8 3 4 -2 5 -10 2 -13 -5 -13 -8 -1 -20 16 -16 29 -19 20 -4 -3 5 0
7 9 4 12 -5 13 -9 3 -19 -7 -7 -16 -10 -21 -7 -5 3 -6 0 -2 -7 6 -9 11 -9 22
0 10 8 14 8 14 0 0 -6 6 -10 13 -9 6 2 12 -4 12 -14 0 -22 35 -59 48 -51 6 3
7 1 3 -5 -4 -6 -2 -20 4 -31 7 -14 7 -22 -2 -27 -7 -5 -8 -3 -3 6 5 9 4 11 -3
6 -8 -5 -4 -18 13 -44 14 -20 29 -37 33 -38 17 -2 42 -17 42 -26 0 -5 -4 -7
-8 -4 -5 3 -9 -2 -9 -11 0 -12 6 -9 23 10 12 14 24 23 27 20 4 -3 0 -12 -8
-20 -12 -11 -12 -18 -3 -33 7 -11 14 -17 17 -15 2 3 -2 11 -8 19 -8 10 -9 16
-1 21 5 3 10 0 10 -7 0 -9 3 -9 10 2 7 11 8 9 6 -11 -1 -13 -6 -31 -11 -38 -5
-9 -4 -12 2 -8 20 12 25 -27 6 -41 -16 -12 -15 -13 9 -8 15 2 27 2 27 -2 -1
-4 0 -9 1 -12 1 -3 3 -12 5 -21 3 -17 -18 -20 -32 -4 -4 4 -3 5 3 2 6 -3 11 0
11 8 0 8 -4 15 -9 15 -8 0 -12 -16 -9 -34 3 -13 -20 -36 -30 -30 -5 3 -6 -2
-2 -11 5 -14 8 -14 15 -3 7 9 8 8 4 -6 -5 -14 -3 -17 11 -12 15 6 15 4 -2 -12
-11 -11 -24 -17 -29 -14 -4 2 -4 7 2 11 6 4 4 12 -6 21 -14 13 -15 12 -9 -3 4
-10 0 -20 -10 -25 -9 -6 -14 -16 -10 -25 4 -11 2 -14 -8 -11 -7 3 -12 15 -10
26 3 11 1 18 -2 14 -12 -11 -12 -40 -1 -53 8 -10 4 -15 -13 -22 -13 -5 -20
-10 -15 -10 5 -1 3 -8 -4 -16 -7 -8 -9 -15 -4 -15 5 0 0 -7 -11 -16 -11 -8
-20 -18 -20 -22 0 -4 -4 -6 -9 -4 -5 2 -6 -4 -2 -13 3 -9 2 -14 -3 -11 -5 3
-14 -1 -20 -8 -10 -11 -8 -17 6 -26 16 -10 16 -11 1 -6 -21 6 -22 2 -7 -25 7
-14 7 -24 0 -33 -6 -7 -7 -16 -3 -21 4 -4 -9 0 -28 9 -21 10 -28 11 -18 3 15
-12 15 -14 0 -25 -15 -10 -15 -11 3 -5 18 6 18 5 6 -10 -7 -9 -17 -14 -22 -11
-5 3 -9 0 -9 -5 0 -6 10 -9 23 -7 15 2 22 10 21 24 -1 12 3 19 7 16 5 -3 7
-10 4 -15 -4 -5 2 -9 12 -9 12 -1 6 -7 -17 -19 -19 -11 -37 -18 -40 -16 -5 3
-9 -14 -12 -53 -1 -7 -8 -10 -15 -8 -8 3 -11 1 -8 -4 3 -6 0 -10 -7 -10 -7 -1
-4 -6 8 -13 20 -12 22 -37 3 -37 -6 0 -8 4 -4 9 3 5 0 13 -7 17 -7 4 -10 4 -6
-1 10 -11 -10 -45 -25 -41 -6 1 -9 1 -4 -1 4 -3 7 -11 7 -19 0 -8 5 -14 12
-14 6 0 9 -2 6 -5 -10 -10 -38 7 -32 19 4 6 -5 0 -18 -14 -17 -17 -21 -27 -14
-32 6 -4 7 -8 3 -8 -4 0 -3 -9 3 -20 6 -11 15 -18 20 -15 5 3 11 1 14 -4 7
-10 -13 -9 -30 2 -7 4 -17 0 -24 -8 -11 -13 -10 -14 3 -10 8 4 18 1 23 -6 4
-7 3 -10 -2 -6 -5 3 -20 -1 -34 -9 l-25 -15 27 6 c23 4 27 2 25 -12 -1 -10 -6
-24 -11 -31 -4 -7 -3 -19 4 -27 8 -10 8 -15 -1 -21 -8 -4 -9 -3 -5 4 4 7 3 12
-1 12 -5 0 -14 10 -22 21 -11 19 -11 21 4 16 10 -5 14 -3 9 5 -4 6 -3 8 3 5 5
-3 10 0 10 8 0 11 -5 11 -23 -2 -22 -14 -23 -16 -7 -41 9 -15 22 -32 29 -38
10 -8 8 -13 -8 -23 -11 -7 -18 -8 -14 -3 3 5 -1 9 -8 9 -11 0 -12 -4 -3 -18 6
-10 15 -15 21 -12 5 3 6 1 2 -5 -3 -5 0 -13 6 -16 7 -3 2 -3 -11 0 -16 4 -21
3 -17 -5 7 -10 -6 -16 -27 -12 -5 1 -6 -9 -2 -21 4 -17 4 -19 -3 -9 -8 11 -11
10 -15 -5 -4 -15 -5 -15 -6 -3 0 9 -8 20 -17 23 -14 5 -15 4 -5 -8 11 -13 9
-15 -8 -11 -11 2 -24 -1 -27 -7 -4 -7 -2 -8 4 -4 7 4 12 2 12 -3 0 -6 -11 -11
-24 -11 -14 0 -28 -5 -32 -11 -4 -8 -9 -7 -15 2 -6 10 -9 8 -9 -8 0 -13 -5
-23 -11 -23 -5 0 -7 5 -4 10 3 6 -3 10 -15 10 -12 0 -18 -4 -15 -10 8 -13 -18
-8 -27 5 -4 6 -8 -1 -8 -15 0 -14 -4 -20 -8 -15 -11 16 -32 16 -32 1 0 -8 -5
-18 -12 -22 -7 -4 -8 -3 -4 4 4 7 3 12 -3 12 -5 0 -13 -4 -16 -10 -3 -5 -12
-10 -18 -10 -8 0 -7 3 2 9 10 7 7 9 -12 8 -21 -2 -23 -5 -14 -16 10 -12 8 -13
-11 -9 -12 4 -25 1 -30 -5 -4 -7 -16 -19 -26 -27 -18 -14 -19 -14 -7 10 l12
25 -20 -25 c-10 -13 -17 -28 -15 -32 12 -19 13 -57 3 -64 -8 -4 -7 -9 2 -15
11 -8 10 -12 -5 -24 -15 -12 -16 -15 -5 -15 9 0 16 -7 16 -15 0 -12 -3 -12
-16 -2 -12 10 -13 9 -7 -1 4 -7 2 -20 -6 -30 -12 -15 -11 -16 4 -4 18 14 43 7
32 -9 -3 -5 -10 -7 -15 -4 -5 4 -9 1 -9 -4 0 -6 6 -11 13 -12 6 0 3 -4 -8 -9
-16 -7 -16 -9 -4 -9 17 -1 34 -29 24 -39 -3 -3 -5 0 -5 6 0 7 -5 12 -12 12 -6
0 -8 -3 -5 -7 4 -3 2 -12 -5 -20 -9 -11 -7 -12 7 -7 15 6 17 3 12 -22 -3 -16
-4 -23 -1 -16 3 6 10 12 15 12 6 0 5 -8 -1 -20 -7 -12 -16 -18 -23 -13 -16 9
14 -30 31 -40 7 -5 10 -13 6 -19 -4 -7 -10 -5 -16 3 -8 11 -9 11 -5 -1 2 -8 9
-15 15 -15 6 0 17 -6 24 -14 9 -10 10 -12 1 -7 -7 4 -21 2 -30 -4 -17 -11 -17
-11 1 -6 14 5 17 2 12 -11 -6 -15 -5 -16 5 -5 17 16 34 16 20 -1 -6 -8 -8 -17
-4 -20 3 -4 0 -7 -7 -7 -7 0 -10 -3 -7 -6 4 -4 14 -1 24 7 14 11 15 11 9 0 -5
-8 -3 -17 5 -22 10 -6 11 -9 2 -9 -7 0 -13 -5 -13 -11 0 -6 7 -8 17 -5 10 4
14 4 11 0 -4 -4 -3 -16 3 -27 6 -10 7 -17 2 -14 -5 4 -10 0 -10 -8 0 -8 3 -12
7 -10 3 2 12 -5 20 -15 8 -10 18 -16 23 -13 6 3 7 1 3 -5 -3 -5 -3 -12 1 -15
5 -2 2 -2 -4 -1 -7 2 -13 -1 -13 -6 0 -9 14 -14 33 -11 4 0 6 -2 6 -6 -3 -21
3 -24 18 -12 14 12 14 10 -2 -14 -10 -15 -15 -31 -11 -35 4 -3 11 0 15 7 6 9
11 10 15 2 4 -6 2 -11 -3 -11 -6 0 -11 -9 -11 -20 0 -13 7 -20 20 -20 11 0 20
-5 20 -11 0 -5 -4 -8 -8 -5 -5 3 -9 -1 -9 -9 0 -9 5 -15 11 -14 33 4 39 -1 20
-17 -16 -13 -16 -15 -1 -10 9 3 17 1 17 -4 0 -6 -8 -10 -17 -10 -15 0 -16 -2
-3 -9 8 -6 17 -8 21 -5 6 3 5 -26 -1 -33 -7 -8 -5 -30 3 -41 6 -8 6 -12 -2
-12 -6 0 -11 5 -11 12 0 9 -3 9 -11 1 -6 -6 -19 -9 -28 -6 -13 4 -14 3 -1 -5
8 -6 18 -8 22 -6 4 3 5 -3 1 -12 -4 -12 -3 -15 5 -10 7 4 12 2 12 -3 0 -10
-14 -15 -32 -12 -5 0 -8 -6 -8 -15 0 -8 4 -13 9 -9 5 3 13 0 17 -6 4 -8 3 -9
-4 -5 -7 4 -12 1 -12 -6 0 -7 -11 -30 -25 -50 -29 -43 -30 -48 -11 -48 8 0 17
-4 20 -9 4 -5 -2 -7 -11 -5 -23 6 -44 -36 -31 -60 5 -9 14 -13 20 -10 6 4 8 3
5 -3 -7 -12 -36 -11 -57 2 -13 8 -13 6 -1 -8 7 -9 10 -17 5 -17 -5 0 -3 -4 5
-9 21 -13 6 -61 -20 -61 -11 0 -17 5 -14 10 4 6 10 8 15 5 14 -9 23 16 11 28
-9 9 -10 7 -5 -7 5 -13 4 -17 -4 -12 -13 7 -27 -11 -27 -37 0 -10 -7 -22 -15
-27 -13 -8 -13 -11 2 -27 17 -16 17 -16 13 5 -2 15 0 20 7 16 6 -4 8 -3 5 3
-3 5 -1 10 6 10 7 0 13 -8 13 -18 0 -10 -6 -15 -15 -11 -9 3 -12 1 -7 -6 3 -6
2 -13 -4 -17 -6 -4 -7 -11 -4 -17 4 -7 2 -8 -5 -4 -6 4 -9 11 -6 16 3 4 -1 10
-8 13 -10 4 -12 -3 -9 -24 3 -18 9 -26 16 -22 6 3 7 2 3 -2 -12 -14 -41 -15
-49 -2 -4 6 -6 -3 -6 -21 1 -20 5 -29 12 -25 6 3 1 -5 -12 -19 -12 -13 -22
-32 -22 -42 0 -9 -4 -14 -10 -11 -5 3 -10 1 -10 -4 0 -6 4 -11 9 -11 5 0 12
-7 15 -16 4 -10 2 -13 -6 -8 -8 5 -9 2 -5 -10 4 -11 3 -15 -4 -11 -6 4 -8 14
-5 22 3 8 1 11 -4 8 -15 -9 -12 -21 8 -41 16 -17 16 -17 0 -11 -10 3 -20 1
-24 -5 -5 -7 -11 -5 -20 7 -12 16 -13 16 -14 -1 0 -11 -1 -28 -2 -39 0 -11 1
-27 4 -35 3 -8 3 -12 1 -8 -2 4 -11 4 -18 2 -11 -5 -12 -9 -2 -19 7 -7 16 -11
20 -8 5 3 3 -4 -5 -16 -7 -12 -16 -21 -20 -21 -5 0 -8 -5 -8 -11 0 -6 7 -9 15
-6 8 4 17 2 20 -3 3 -4 -6 -7 -19 -6 -21 3 -24 0 -21 -25 3 -24 2 -27 -9 -16
-8 6 -12 17 -9 23 2 7 0 15 -5 18 -5 3 -8 -6 -6 -19 1 -14 -1 -27 -5 -30 -4
-2 -7 -18 -6 -34 1 -25 -1 -29 -12 -19 -11 8 -12 7 -7 -5 7 -19 32 -30 46 -20
7 3 8 1 4 -5 -8 -13 -32 -12 -56 2 -12 7 -13 6 -2 -5 16 -17 16 -29 -1 -25 -6
1 -9 1 -4 -1 4 -3 4 -10 0 -16 -3 -7 3 -4 14 6 16 14 20 14 20 2 0 -8 -4 -12
-9 -9 -4 3 -8 1 -8 -4 0 -5 -9 -13 -20 -18 -20 -9 -20 -9 2 -23 21 -13 22 -13
9 2 -7 10 -9 17 -3 17 17 0 21 -28 6 -41 -8 -7 -13 -18 -10 -26 3 -8 2 -12 -3
-9 -5 3 -12 -1 -15 -10 -3 -9 -12 -14 -20 -11 -18 7 -14 -21 5 -34 11 -8 10
-9 -6 -7 -16 2 -20 -2 -18 -22 l3 -25 -15 25 c-12 21 -14 22 -12 5 1 -11 6
-26 10 -32 6 -9 3 -11 -10 -6 -15 6 -16 4 -6 -8 10 -12 10 -19 -1 -35 -7 -10
-12 -27 -10 -37 1 -10 -2 -14 -9 -10 -6 4 -8 0 -4 -11 6 -14 4 -15 -14 -5 -16
8 -20 8 -14 0 4 -7 1 -19 -7 -28 -12 -15 -11 -15 9 -5 16 9 24 9 29 0 4 -6 3
-8 -3 -5 -5 4 -20 -5 -31 -18 -26 -29 -28 -39 -7 -32 8 4 17 2 20 -4 4 -5 3
-9 -2 -8 -20 3 -34 -2 -28 -10 3 -6 -3 -8 -15 -6 -11 2 -23 -1 -26 -7 -4 -7
-2 -8 4 -4 7 4 12 2 12 -3 0 -10 -14 -15 -33 -12 -5 1 -6 -3 -2 -8 3 -6 12 -8
20 -4 11 4 13 1 9 -11 -3 -8 -10 -14 -14 -13 -8 2 -10 -3 -10 -24 0 -8 6 -7
18 2 9 7 6 1 -7 -13 -12 -15 -20 -31 -17 -37 4 -5 2 -12 -4 -16 -6 -4 -8 -11
-5 -16 3 -5 -1 -6 -9 -3 -9 3 -13 11 -9 17 3 6 1 7 -6 3 -9 -6 -9 -11 1 -24
11 -14 10 -15 -7 -8 -11 4 -16 4 -12 0 4 -4 -1 -13 -11 -21 -9 -8 -12 -12 -7
-10 6 3 16 -1 23 -9 7 -8 8 -14 3 -14 -10 0 -7 -32 4 -51 5 -7 11 -6 21 2 8 6
17 9 21 5 3 -3 1 -6 -6 -6 -7 0 -9 -4 -6 -10 3 -5 14 -10 24 -10 10 0 23 -10
29 -22 6 -13 11 -17 11 -10 1 6 -8 21 -18 31 -19 19 -19 20 0 18 10 -1 19 -7
19 -14 0 -7 5 -13 10 -13 6 0 10 6 10 14 0 8 4 18 10 21 5 3 7 0 4 -8 -3 -8
-1 -18 5 -21 6 -4 7 -14 4 -24 -5 -14 -2 -13 11 3 l18 20 -7 -20 c-5 -15 -3
-17 6 -8 13 13 3 36 -13 27 -7 -5 -8 -2 -3 6 6 9 4 11 -5 5 -9 -5 -11 -4 -6 4
4 6 11 9 16 6 4 -3 10 -2 13 2 2 5 3 3 1 -4 -1 -6 6 -13 17 -16 15 -4 19 -2
15 8 -3 9 0 12 10 8 10 -4 12 0 8 13 -6 15 -4 17 6 7 11 -10 11 -15 0 -28 -10
-12 -11 -18 -1 -28 10 -9 11 -8 5 6 -4 13 -2 16 9 11 8 -3 18 -1 22 5 4 8 12
8 25 1 13 -7 21 -7 26 2 4 7 3 8 -4 4 -7 -4 -12 -3 -12 3 0 5 -9 8 -20 6 -11
-2 -23 2 -26 8 -4 7 -4 9 1 5 4 -4 14 -3 22 3 7 6 13 8 13 4 0 -4 6 -3 13 3 9
8 17 8 27 0 12 -8 12 -9 -2 -4 -10 3 -20 1 -23 -3 -2 -5 8 -11 25 -13 17 -3
27 0 23 5 -3 6 -1 7 6 3 6 -4 9 -17 6 -29 -2 -12 -2 -17 1 -10 3 7 11 11 17 9
7 -1 9 -1 5 1 -5 3 -8 14 -8 25 0 19 2 18 21 -6 20 -25 39 -27 39 -3 0 8 -3 8
-9 -2 -5 -7 -11 -9 -14 -4 -3 5 4 15 16 22 12 8 19 10 15 6 -4 -4 -3 -16 2
-26 7 -11 6 -19 0 -22 -6 -3 -5 -4 2 -3 7 2 12 10 10 17 -1 9 3 8 12 -4 12
-15 15 -15 26 -2 10 12 15 12 34 0 23 -15 36 -11 36 9 0 6 -5 4 -10 -4 -7 -11
-10 -11 -10 -2 0 8 -5 10 -13 6 -6 -4 -9 -3 -4 1 4 5 16 10 27 12 18 3 26 -12
21 -40 -1 -5 3 -6 8 -2 6 3 8 12 4 20 -4 11 -1 13 11 9 9 -3 13 -11 9 -18 -4
-6 2 -4 13 4 29 22 30 24 12 17 -10 -3 -22 1 -30 11 -11 15 -11 15 2 6 8 -6
27 -9 43 -8 15 2 27 -2 27 -7 0 -6 -4 -7 -10 -4 -5 3 -7 0 -4 -9 5 -12 9 -11
25 5 20 20 26 34 10 24 -5 -3 -12 -1 -15 4 -4 5 2 8 11 7 20 -3 28 -22 14 -31
-14 -8 -14 -25 0 -25 5 0 7 5 4 10 -3 6 1 10 10 10 10 0 13 -5 9 -12 -5 -9 -2
-8 10 1 13 11 14 16 4 23 -9 5 -7 7 7 5 20 -2 29 -17 18 -27 -4 -3 -3 2 2 10
6 12 5 13 -5 3 -16 -15 -7 -28 12 -17 18 12 51 12 61 -1 5 -6 7 -4 4 5 -2 8
-10 14 -16 13 -6 -2 -11 1 -11 6 0 6 9 9 19 8 11 0 19 -4 19 -7 0 -3 0 -12 1
-20 1 -13 2 -13 11 0 6 10 10 11 10 3 0 -7 5 -13 10 -13 7 0 7 7 0 23 -11 21
-10 21 4 3 9 -10 13 -23 10 -27 -10 -16 9 -9 23 9 8 9 12 11 8 4 -3 -6 0 -12
7 -12 10 0 9 -3 -2 -11 -13 -9 -13 -10 2 -6 9 3 24 0 34 -8 21 -15 44 -9 44
12 0 8 5 11 10 8 6 -4 7 -11 4 -17 -4 -7 -2 -8 5 -4 6 4 9 12 6 17 -4 5 -1 9
4 9 6 0 11 -3 11 -8 0 -4 10 -13 23 -21 17 -10 19 -11 10 0 -19 19 -16 34 4
18 10 -8 14 -9 10 -2 -4 6 -2 15 4 19 8 4 9 3 5 -4 -4 -7 -2 -12 4 -12 6 0 9
-4 6 -9 -4 -5 2 -8 11 -6 10 2 22 4 26 4 5 1 6 5 3 9 -2 4 0 14 5 22 8 12 9
11 7 -4 -2 -10 3 -21 11 -24 10 -3 12 0 8 12 -4 11 -3 15 4 11 5 -4 15 -3 22
2 7 5 26 8 42 8 17 -1 35 2 40 6 6 4 17 4 24 0 18 -12 52 -2 44 13 -4 6 1 5
10 -3 18 -15 23 -26 7 -16 -5 3 -10 1 -10 -4 0 -17 11 -13 39 11 14 13 20 16
14 8 -17 -18 -17 -38 -1 -22 16 16 31 15 22 0 -8 -14 24 9 39 27 5 6 7 3 3 -7
-3 -10 0 -20 6 -24 7 -5 8 -2 3 6 -6 10 -1 12 18 8 15 -3 24 -2 22 2 -3 5 2
11 11 14 8 3 13 2 10 -3 -9 -14 26 -23 38 -11 8 8 7 10 -5 5 -9 -3 -16 -1 -16
7 0 8 8 14 18 14 10 0 15 -4 13 -8 -3 -4 5 -12 16 -18 11 -6 20 -7 20 -3 0 4
4 1 10 -7 8 -12 10 -12 16 3 3 9 10 14 15 11 5 -3 6 -10 3 -16 -4 -6 3 -5 16
2 12 6 31 9 42 7 14 -4 17 -2 9 7 -8 9 -7 13 4 13 8 0 15 -6 15 -14 0 -7 5
-13 11 -13 6 0 9 6 6 13 -3 8 1 14 9 14 7 0 11 -4 8 -9 -3 -4 0 -8 5 -8 6 0
11 5 11 11 0 5 5 7 10 4 6 -4 7 -12 3 -18 -3 -7 3 -3 15 7 12 11 22 16 22 11
0 -4 8 -1 17 6 14 12 16 12 8 0 -6 -11 -4 -13 9 -8 10 4 15 3 11 -3 -3 -6 1
-10 10 -10 10 0 13 -5 9 -12 -6 -9 -3 -9 9 0 9 8 29 13 44 12 51 -4 65 -1 57
13 -6 9 -5 9 7 0 22 -18 72 -25 66 -9 -3 7 1 13 9 13 9 0 13 -6 9 -16 -3 -8
-3 -12 1 -9 4 4 16 3 28 -3 20 -10 20 -10 2 5 -23 19 -22 19 22 7 18 -6 30 -6
27 -1 -3 5 -1 11 5 15 6 3 10 -4 11 -17 0 -23 0 -23 10 2 l10 25 19 -23 c10
-12 24 -22 32 -22 10 0 9 3 -2 11 -12 9 -12 10 3 5 10 -3 25 -6 33 -6 9 0 12
-4 9 -10 -4 -7 3 -7 19 0 18 6 26 6 26 -1 0 -6 4 -7 10 -4 5 3 10 1 10 -6 0
-8 5 -7 16 2 15 12 16 11 10 -11 -4 -14 -4 -20 1 -15 4 6 15 10 23 10 8 0 18
6 22 15 5 13 7 12 7 -2 1 -12 6 -15 18 -11 11 4 14 3 9 -5 -4 -7 -1 -12 9 -12
9 0 13 5 10 10 -10 16 7 12 19 -5 10 -13 14 -13 40 0 29 15 29 15 14 -2 -16
-17 -15 -18 13 -18 16 -1 29 4 29 10 0 5 5 3 10 -5 5 -8 10 -10 10 -5 0 6 9
11 21 12 18 2 19 0 7 -15 -11 -15 -11 -15 3 -5 9 7 20 9 24 5 5 -4 4 -1 0 7
-6 11 -4 13 9 8 14 -6 17 -3 12 10 -4 10 -4 14 0 10 4 -4 18 0 31 8 22 15 24
14 33 -11 8 -20 13 -24 24 -15 7 6 17 7 21 3 5 -4 5 -1 1 6 -6 10 -11 11 -24
0 -14 -10 -15 -10 -5 2 7 7 24 14 37 15 21 0 23 -2 13 -14 -10 -12 -9 -13 2
-6 11 6 13 4 8 -11 -7 -19 -7 -19 8 0 8 10 12 23 8 29 -3 6 -1 7 6 3 6 -4 8
-13 4 -19 -4 -7 2 -5 12 3 10 8 16 10 12 4 -4 -7 0 -15 9 -18 10 -4 13 -2 8 6
-5 7 -2 9 8 5 9 -3 20 -1 26 5 8 8 16 6 27 -6 20 -19 32 -21 16 -2 -9 11 -6
13 18 10 25 -3 29 0 25 14 -3 9 2 6 10 -8 8 -14 15 -19 16 -12 0 8 9 12 23 10
13 -2 21 2 20 9 -4 17 24 17 30 1 3 -8 6 -6 6 4 1 12 6 15 18 11 11 -4 14 -3
9 5 -5 8 -1 10 10 5 11 -4 15 -2 11 4 -7 10 40 10 50 -1 3 -3 12 2 20 12 8 9
12 11 8 5 -4 -9 1 -13 15 -13 12 0 19 -4 16 -8 -3 -5 1 -9 9 -9 8 0 12 3 10 7
-2 3 5 6 16 6 10 0 19 -4 19 -8 0 -4 5 -8 11 -8 5 0 8 4 5 9 -3 4 5 8 17 7 12
-1 21 -7 20 -13 -1 -6 6 -9 17 -6 11 3 20 10 20 17 0 8 3 8 8 0 4 -6 30 -10
57 -10 39 1 49 -2 47 -14 -3 -11 1 -11 16 3 22 20 37 23 26 5 -5 -9 -2 -9 9 1
19 15 23 26 5 15 -7 -4 -8 -3 -4 5 4 6 11 9 16 6 4 -3 11 1 14 7 3 7 3 3 0
-10 -5 -22 9 -31 21 -12 4 7 13 6 27 -1 15 -8 19 -8 14 0 -4 7 1 11 13 11 12
0 21 5 21 12 0 6 3 8 7 4 5 -4 -1 -14 -12 -23 -20 -15 -20 -15 2 -9 12 4 24 2
28 -4 3 -5 11 -10 18 -10 6 0 2 6 -9 14 -16 12 -17 17 -6 28 7 7 12 9 10 3 -2
-5 2 -10 7 -10 6 0 9 4 7 8 -1 5 2 6 7 3 5 -4 8 -15 6 -25 -3 -14 1 -18 16
-14 11 3 22 9 25 14 3 5 -2 6 -10 3 -10 -4 -16 -1 -16 7 0 7 3 9 7 6 3 -4 13
-1 21 6 13 9 14 9 8 -1 -4 -6 -3 -12 3 -12 5 0 12 6 14 12 4 8 6 9 6 2 1 -6
-6 -17 -14 -24 -8 -7 -15 -17 -15 -23 0 -6 6 -3 13 8 8 10 19 15 25 11 6 -3
14 -1 18 5 4 8 3 9 -4 5 -8 -5 -10 -1 -5 10 5 14 8 13 20 -7 l14 -24 -7 25
c-6 24 -6 24 9 5 8 -11 13 -23 11 -27 -3 -5 26 -3 34 2 8 7 29 5 41 -4 11 -8
13 -8 8 0 -4 7 0 15 9 18 21 8 26 8 20 -2 -7 -11 81 -9 91 2 5 5 2 6 -6 1 -9
-5 -12 -4 -8 3 4 5 15 9 25 8 9 -2 21 2 25 8 6 7 7 6 4 -4 -2 -8 -10 -14 -16
-13 -21 5 -11 -6 20 -21 19 -10 27 -11 21 -3 -16 21 -10 44 12 43 13 -1 20 4
18 12 -1 8 2 11 8 7 8 -5 8 -11 -1 -21 -6 -7 -15 -11 -20 -8 -5 3 -9 -2 -9
-11 0 -11 5 -15 14 -12 7 3 19 0 26 -6 9 -9 11 -9 7 -1 -4 7 0 15 9 18 24 9
27 7 14 -9 -7 -9 -10 -18 -6 -22 3 -3 6 -1 6 5 0 7 5 12 11 12 5 0 7 -5 3 -12
-4 -7 -3 -8 5 -4 6 4 9 12 6 17 -4 5 -2 9 4 9 6 0 8 8 5 18 -4 13 -4 14 4 4 5
-8 23 -12 43 -10 26 2 34 -1 34 -14 0 -9 4 -20 9 -25 5 -4 6 -3 2 5 -4 6 -3
12 3 12 6 0 8 6 5 14 -3 8 0 17 7 22 7 4 10 3 6 -3 -4 -6 0 -18 7 -28 17 -23
47 -29 39 -8 -4 11 -8 12 -13 3 -5 -9 -10 -6 -15 9 -4 13 -4 25 -1 28 3 4 6
-1 6 -9 0 -21 26 -17 46 8 14 18 15 18 4 -3 -12 -26 -3 -29 25 -9 11 8 26 11
35 8 13 -5 13 -4 0 13 -14 17 -14 17 7 4 13 -8 23 -17 23 -22 0 -4 -4 -5 -10
-2 -5 3 -10 1 -10 -5 0 -7 6 -10 14 -7 7 3 19 0 26 -6 10 -9 11 -9 6 1 -4 6
-2 12 3 12 6 0 11 -4 11 -9 0 -12 27 -8 40 5 7 7 -3 10 -30 9 -22 -1 -38 1
-35 3 3 3 -1 12 -8 21 -10 14 -10 14 3 4 22 -17 68 -24 72 -11 5 14 38 19 38
6 0 -6 -7 -7 -16 -4 -10 4 -14 2 -11 -6 2 -7 11 -12 18 -10 8 2 11 0 7 -4 -9
-9 10 -34 26 -34 7 0 6 3 -2 8 -10 7 -8 12 6 26 19 16 19 16 16 -16 -3 -22 -1
-28 5 -19 5 8 14 10 21 6 9 -5 11 -4 6 3 -4 7 -2 12 4 12 6 0 8 5 5 10 -5 8
-12 7 -23 -2 -15 -12 -16 -11 -4 4 11 14 17 15 32 6 10 -6 16 -19 13 -27 -4
-13 -3 -13 5 -2 5 7 16 10 23 7 8 -4 4 2 -9 13 -21 18 -21 20 -3 18 11 0 17
-5 15 -9 -3 -4 5 -9 18 -9 88 -5 130 -4 134 3 3 5 10 5 16 2 6 -4 14 -1 18 6
5 8 9 7 13 -5 5 -10 3 -14 -5 -9 -7 4 -8 3 -4 -4 5 -9 13 -9 27 -2 10 6 25 10
32 9 27 -3 36 2 31 19 -5 14 -4 14 4 2 7 -9 8 -18 1 -26 -9 -11 0 -12 29 -5 1
1 -2 11 -9 22 -6 13 -7 19 -1 15 6 -3 12 -3 15 1 2 5 2 3 1 -4 -4 -17 9 -23
26 -12 13 7 13 9 1 9 -8 0 -11 3 -8 7 4 3 1 13 -6 21 -9 13 -9 14 1 8 7 -4 12
-1 12 9 0 9 -5 13 -11 9 -8 -4 -8 -1 -1 13 6 10 9 36 7 57 -3 31 -2 36 10 26
9 -8 15 -8 20 0 4 6 1 9 -6 8 -8 -2 -13 6 -14 19 0 12 -3 24 -7 28 -4 4 -4 13
-1 21 3 8 0 14 -5 14 -6 0 -9 -8 -7 -18 2 -11 -3 -19 -11 -19 -8 0 -14 4 -14
9 0 5 -5 6 -12 2 -7 -4 -8 -3 -4 5 4 6 13 8 19 4 7 -4 6 0 -2 10 -7 9 -18 14
-25 10 -8 -5 -8 -3 0 8 6 8 10 26 7 41 -2 14 1 29 6 32 4 3 7 -8 6 -24 -2 -18
1 -27 8 -23 6 4 8 -2 5 -15 -4 -13 -2 -20 3 -16 10 6 8 42 -4 62 -5 7 -4 12 2
12 6 0 11 4 11 9 0 5 -14 8 -32 6 -29 -4 -30 -3 -12 10 11 9 13 14 5 13 -7 -2
-15 3 -17 10 -1 7 0 8 2 3 3 -5 14 -6 26 -3 16 4 19 2 13 -8 -5 -9 -4 -11 4
-6 14 9 5 26 -14 26 -7 0 -16 7 -19 16 -5 13 -2 15 14 11 11 -3 23 0 27 5 3 7
1 8 -5 4 -7 -4 -12 -3 -12 2 0 6 -10 8 -22 4 -19 -5 -20 -4 -7 10 7 9 17 14
21 12 8 -5 5 17 -6 34 -4 7 -3 19 3 26 8 9 7 13 -4 13 -8 0 -12 -4 -9 -8 2 -4
-1 -11 -6 -14 -7 -5 -5 -11 5 -19 16 -11 15 -13 -1 -27 -16 -12 -17 -12 -11 3
3 10 2 20 -4 24 -7 4 -7 10 0 18 7 9 7 17 -2 26 -10 10 -9 11 2 5 11 -6 13 -4
7 10 -5 14 -4 15 7 7 10 -8 13 -7 13 7 0 10 -5 17 -11 14 -7 -2 -12 3 -12 11
0 8 4 13 9 10 4 -3 8 0 8 5 0 6 -6 11 -14 11 -8 0 -17 4 -20 8 -6 11 25 9 42
-2 11 -7 11 -4 0 13 -11 18 -11 23 2 32 12 8 11 9 -5 5 -11 -3 -27 -1 -35 5
-13 9 -13 10 2 6 23 -8 28 1 18 29 -6 14 -6 26 0 29 15 9 -8 47 -23 39 -9 -5
-8 -3 1 7 17 18 15 34 -2 20 -10 -8 -16 -9 -21 -1 -4 6 -1 9 5 8 7 -2 14 5 15
15 2 9 -2 17 -8 17 -8 0 -8 3 -2 8 19 13 17 35 -2 28 -16 -5 -16 -5 -2 6 9 7
14 23 13 36 -2 12 0 22 5 22 5 0 8 -8 6 -17 -1 -10 3 -24 9 -32 8 -11 8 -13
-1 -8 -11 7 -13 -9 -2 -28 4 -5 5 -18 4 -27 -2 -10 1 -18 7 -18 6 0 5 -6 -2
-15 -9 -10 -9 -15 -1 -15 6 0 11 5 11 11 0 5 6 7 13 3 8 -6 8 -3 -1 9 -8 9
-11 21 -8 26 4 5 2 12 -2 15 -13 8 -9 51 6 69 9 11 10 17 2 22 -6 4 -9 3 -8
-2 2 -4 -2 -9 -7 -10 -15 -4 -13 20 3 32 10 8 9 11 -8 12 -11 1 -18 -2 -15 -8
4 -5 1 -9 -4 -9 -6 0 -11 3 -12 8 0 4 -2 17 -3 30 -2 13 2 26 7 29 6 3 7 1 3
-5 -4 -7 -2 -12 3 -12 15 0 14 13 -1 28 -10 10 -10 15 0 21 11 7 10 9 -2 14
-9 4 -16 12 -16 18 0 8 6 7 18 -2 15 -13 16 -12 4 3 -15 19 -7 42 11 31 8 -5
8 -2 0 9 -7 8 -9 19 -5 24 4 4 -1 2 -11 -6 -15 -11 -20 -11 -27 -1 -9 15 -2
50 14 70 8 11 8 15 -1 18 -7 3 -13 9 -13 14 0 6 4 7 10 4 6 -3 7 1 4 9 -3 9
-14 16 -23 15 -11 0 -12 -2 -3 -6 10 -4 10 -8 1 -19 -6 -8 -7 -14 -2 -14 5 0
10 -7 10 -16 0 -15 -1 -15 -12 0 -7 9 -11 28 -9 43 1 15 -2 33 -7 39 -7 8 -6
15 2 20 8 5 9 3 4 -6 -6 -9 -4 -11 5 -5 8 5 11 4 6 -3 -3 -6 -2 -13 3 -16 10
-7 9 20 -2 30 -18 18 -4 25 16 8 22 -19 22 -19 6 1 -9 11 -14 26 -11 34 3 8
-10 -1 -27 -20 -18 -19 -30 -29 -27 -23 3 7 -1 15 -10 18 -9 3 -12 11 -8 18
13 20 14 59 2 52 -6 -4 -8 -2 -4 4 3 6 2 14 -4 17 -6 4 -8 16 -4 27 4 15 3 18
-6 13 -9 -6 -11 -4 -5 4 5 9 10 10 18 2 6 -6 16 -11 22 -11 5 0 3 5 -5 10 -18
11 -20 32 -5 43 6 4 5 10 -5 17 -21 13 -37 -5 -20 -25 8 -10 9 -15 1 -15 -6 0
-11 5 -11 11 0 5 -4 7 -10 4 -5 -3 -7 0 -5 8 3 7 -3 22 -15 32 -11 10 -20 23
-20 29 0 6 4 5 9 -3 5 -8 11 -9 15 -3 3 5 -8 24 -24 41 -17 17 -26 31 -20 31
5 0 10 4 10 10 0 5 -8 6 -17 3 -12 -5 -15 -2 -10 9 3 9 3 19 -1 23 -4 4 -7 12
-7 18 -1 7 -6 11 -11 10 -6 -1 -11 4 -11 12 0 8 4 12 8 9 4 -2 9 -1 12 3 2 5
3 3 1 -3 -1 -7 5 -10 17 -7 10 3 19 10 19 15 0 5 -4 7 -9 3 -5 -3 -12 -1 -16
4 -3 6 -13 7 -22 4 -11 -4 -14 -2 -11 8 3 8 1 22 -4 32 -6 12 -5 17 6 17 8 0
18 -4 21 -10 3 -5 2 -10 -3 -10 -5 0 -9 -6 -9 -14 0 -8 6 -12 13 -9 24 9 1 54
-31 59 -8 1 -15 -2 -15 -7 0 -5 -4 -9 -8 -9 -5 0 -9 7 -9 15 0 8 4 12 8 10 3
-3 12 2 18 9 10 11 8 16 -8 21 -12 4 -18 12 -14 21 6 16 24 19 20 3 -1 -6 5
-14 13 -16 12 -4 12 -3 2 5 -8 5 -13 13 -12 18 3 15 -20 16 -26 1 -3 -9 -14
-14 -27 -12 -25 5 -48 25 -28 25 10 0 11 3 3 13 -7 8 -7 18 -2 27 5 8 6 18 3
24 -4 5 1 7 10 3 9 -3 19 -1 23 6 4 7 4 9 -1 5 -4 -4 -16 -3 -26 2 -12 7 -20
6 -25 -2 -4 -6 -3 -8 4 -4 14 8 9 -22 -6 -34 -9 -7 -9 -7 -2 2 7 8 5 17 -6 29
-14 16 -14 18 4 28 11 6 22 7 26 4 3 -3 6 -1 6 5 0 7 -10 11 -22 9 -16 -1 -23
3 -22 14 1 10 -6 15 -20 13 -12 -1 -25 -3 -29 -3 -5 -1 -5 -7 -1 -13 5 -9 3
-9 -9 1 -9 7 -15 17 -12 21 3 5 -1 15 -10 23 -13 13 -13 16 1 21 10 4 13 2 8
-6 -4 -6 -3 -8 3 -5 6 4 10 -1 9 -11 0 -10 5 -16 14 -13 8 2 20 4 27 4 7 0 10
4 7 9 -3 5 -10 6 -15 3 -5 -4 -9 -3 -9 2 0 4 -12 17 -27 27 -14 11 -23 14 -19
8 4 -7 2 -12 -4 -12 -7 0 -10 6 -7 14 3 7 0 19 -6 27 -7 7 0 5 16 -4 15 -10
27 -13 27 -7 0 5 -5 10 -11 10 -5 0 -8 4 -4 9 3 5 1 12 -4 16 -6 3 -8 12 -4
20 3 8 1 15 -5 15 -12 0 -11 -18 3 -40 7 -12 6 -13 -7 -3 -8 7 -17 10 -20 7
-3 -3 -4 9 -3 26 2 22 -1 30 -10 26 -8 -3 -12 2 -10 12 2 9 4 17 5 17 1 0 3
11 6 25 3 23 3 24 -10 7 -12 -15 -14 -15 -19 -2 -4 8 -3 14 1 12 4 -1 7 2 7 8
0 5 -3 9 -6 8 -3 -1 -6 4 -6 12 0 8 3 14 6 13 22 -2 30 4 24 19 -4 10 -2 14 5
9 6 -3 14 -1 18 5 5 8 3 9 -6 4 -8 -5 -11 -3 -8 6 3 8 12 13 19 11 8 -2 10 0
6 5 -5 4 -13 8 -18 8 -5 0 -8 5 -7 10 2 6 7 9 12 7 5 -2 4 4 -4 13 -10 12 -16
13 -26 4 -15 -13 -19 -23 -5 -15 9 6 8 -60 -1 -69 -3 -3 -8 1 -12 10 -3 9 -2
13 4 10 17 -11 11 7 -7 21 -17 13 -17 14 2 7 19 -6 19 -5 4 13 -17 19 -15 49
2 38 5 -3 9 0 9 5 0 15 -13 14 -29 -1 -12 -11 -13 -10 -7 6 7 20 7 20 -16 1
-13 -11 -20 -16 -16 -11 4 5 -1 17 -12 26 -18 15 -18 19 -5 24 9 3 14 2 11 -2
-6 -10 41 -8 51 2 5 4 4 7 -2 6 -23 -5 -46 1 -40 10 3 6 1 10 -4 10 -6 0 -11
-4 -11 -10 0 -5 -11 -9 -24 -8 -17 2 -22 7 -18 18 9 26 13 30 23 24 6 -3 5
-12 -3 -22 -12 -15 -11 -16 5 -3 13 11 15 17 6 27 -9 12 -15 12 -27 2 -13 -11
-15 -10 -9 5 4 11 3 16 -4 12 -5 -4 -7 -16 -4 -28 2 -12 2 -16 -1 -9 -3 6 -10
10 -15 7 -5 -4 -6 1 -3 9 4 10 1 16 -10 16 -10 0 -13 -6 -10 -17 4 -10 -3 -6
-13 10 -11 15 -23 24 -26 20 -4 -3 -7 -1 -7 5 0 17 20 15 26 -3 5 -12 10 -13
20 -4 7 6 18 8 23 4 7 -3 8 0 5 10 -5 12 -10 13 -20 4 -17 -14 -35 -3 -28 19
4 11 3 13 -3 5 -5 -7 -18 -11 -30 -10 -20 1 -21 3 -8 17 25 28 17 31 -12 4
-14 -13 -28 -22 -31 -19 -3 2 6 13 19 24 l23 19 -39 -2 c-26 -1 -40 4 -41 12
-1 6 -2 17 -3 23 0 5 -5 8 -9 5 -5 -3 -9 1 -9 9 0 8 4 12 9 9 4 -3 8 -1 8 4 0
5 -10 14 -22 19 -23 10 -22 11 3 9 21 -1 26 -6 24 -23 -1 -13 2 -20 8 -16 6 4
8 0 4 -10 -8 -21 28 -44 39 -25 4 6 3 8 -3 5 -5 -3 -17 9 -26 28 -12 26 -13
35 -4 35 6 0 4 5 -6 11 -9 6 -15 14 -12 19 3 5 1 11 -4 15 -6 3 -8 -3 -6 -14
3 -14 -1 -18 -12 -14 -10 4 -11 8 -3 13 6 4 12 11 13 16 1 5 8 8 15 6 8 -2 11
1 7 7 -3 6 -13 11 -21 11 -26 0 -10 31 19 36 4 1 9 3 12 4 3 1 9 3 14 4 5 0
13 5 18 10 4 5 3 6 -4 2 -7 -4 -17 2 -22 13 -9 16 -7 20 7 23 14 3 14 5 -4 10
-18 5 -20 1 -19 -28 2 -25 -1 -31 -12 -27 -12 5 -12 7 -1 14 10 6 9 12 -7 24
-15 11 -16 14 -3 9 13 -5 16 -1 13 16 -3 18 -2 20 10 10 8 -7 15 -9 15 -6 0 4
10 2 23 -4 19 -9 20 -9 3 2 -49 34 -56 43 -46 58 9 13 10 12 8 -4 -2 -10 3
-21 11 -24 8 -3 11 0 7 7 -4 6 -2 11 5 11 7 0 5 8 -7 22 -12 13 -13 18 -4 13
25 -16 47 -15 47 0 0 11 -7 14 -21 10 -18 -5 -17 -4 3 8 14 8 19 17 13 21 -6
3 -12 0 -15 -6 -2 -7 -8 -9 -13 -5 -11 11 15 27 33 20 7 -3 13 0 13 7 0 6 -4
8 -10 5 -5 -3 -10 -2 -10 4 0 5 6 12 13 14 7 4 6 6 -4 6 -11 1 -16 9 -15 25 0
13 5 22 9 19 5 -3 6 -11 3 -19 -3 -8 -1 -14 4 -14 6 0 10 7 10 16 0 8 4 13 9
9 5 -3 13 0 17 6 4 8 3 9 -4 5 -7 -4 -12 -2 -12 3 0 6 -3 10 -7 10 -30 -5 -35
2 -19 20 10 11 25 17 34 14 10 -3 4 4 -13 16 -31 22 -28 29 6 11 13 -7 19 -7
19 0 0 5 -5 10 -11 10 -5 0 -7 4 -4 10 3 5 0 7 -8 4 -8 -3 -14 1 -14 10 0 8 4
13 9 10 4 -3 8 0 8 6 0 6 4 9 8 6 4 -2 8 6 8 19 0 13 -4 21 -8 19 -4 -3 -8 1
-8 10 0 8 -6 17 -12 19 -10 4 -10 6 0 6 7 1 10 6 6 13 -4 7 -3 8 4 4 7 -4 12
-1 12 9 0 9 4 14 9 10 5 -3 13 -1 16 5 4 6 1 9 -7 8 -8 -2 -12 4 -10 17 2 11
1 17 -3 13 -3 -3 -8 -14 -9 -24 -2 -10 -9 -20 -17 -22 -8 -2 -10 0 -4 5 16 13
19 46 3 38 -7 -3 -4 1 7 10 17 14 18 17 5 25 -12 8 -10 10 8 10 13 0 20 -4 17
-10 -3 -5 -1 -18 5 -27 10 -16 10 -15 5 4 -3 12 -1 24 5 28 6 4 8 15 5 25 -3
10 -1 21 5 25 5 3 10 11 10 18 0 6 -6 3 -13 -8 -17 -22 -37 -12 -30 15 3 11 1
20 -5 20 -5 0 -13 7 -16 16 -6 15 -4 15 10 3 16 -13 16 -12 4 11 l-13 25 23
-20 23 -20 -14 23 c-8 12 -17 22 -20 22 -14 0 -18 30 -6 42 7 7 19 22 27 33
14 18 13 19 -1 8 -9 -7 -20 -9 -24 -5 -5 4 -5 2 -2 -4 3 -6 0 -11 -8 -11 -26
0 -16 12 28 35 23 13 33 20 22 16 -42 -13 -67 -15 -60 -4 3 5 14 10 25 10 10
0 21 7 24 16 4 10 2 13 -7 7 -18 -11 -38 -13 -31 -2 3 5 10 7 15 4 5 -4 9 1 9
10 0 9 4 14 8 11 15 -9 10 28 -6 47 -18 20 -24 65 -11 73 4 2 6 -5 4 -16 -2
-11 0 -18 5 -15 5 3 7 -4 5 -15 -2 -11 0 -18 5 -15 4 3 11 -1 13 -7 4 -9 6
-10 6 -1 1 6 -4 15 -10 18 -6 5 -4 12 8 20 17 13 17 13 -2 12 -18 -2 -20 4
-20 50 0 28 -3 49 -7 47 -5 -3 -6 -9 -3 -14 3 -5 1 -11 -4 -14 -5 -4 -12 -2
-15 3 -4 5 -2 12 4 16 5 3 10 11 10 16 0 6 -6 7 -12 2 -7 -4 -5 5 5 20 18 28
11 36 -13 15 -8 -7 -7 -4 3 8 22 26 22 41 0 23 -15 -12 -16 -12 -8 1 5 8 10
20 11 25 1 6 3 15 4 20 4 19 0 45 -8 45 -4 0 -8 -9 -9 -20 -1 -13 2 -18 9 -14
7 4 8 2 4 -5 -10 -15 -29 -3 -22 15 3 8 1 14 -5 14 -6 0 -1 8 12 18 15 13 19
21 10 26 -7 4 -10 2 -9 -5 2 -6 -4 -14 -12 -17 -8 -2 -12 -1 -8 3 7 8 -15 35
-28 35 -5 0 -3 -5 4 -12 7 -7 12 -16 12 -22 0 -5 -11 4 -25 20 -14 16 -25 25
-25 20 0 -5 -6 -3 -14 3 -11 9 -16 9 -22 0 -4 -7 -3 -9 3 -6 6 4 13 1 16 -7 4
-11 -1 -13 -19 -10 -16 3 -23 1 -19 -6 3 -5 2 -10 -4 -10 -6 0 -8 -8 -4 -17 5
-15 3 -14 -11 2 -9 11 -15 14 -14 6 2 -7 -3 -16 -11 -19 -9 -3 -11 0 -6 9 5 8
4 10 0 6 -5 -4 -11 -20 -13 -35 -4 -36 -20 -51 -33 -32 -7 11 -8 8 -5 -13 3
-15 1 -25 -4 -22 -4 3 -10 -1 -12 -7 -3 -7 -20 -13 -39 -13 -19 0 -34 -5 -34
-12 0 -6 -4 -15 -9 -20 -5 -5 -6 -3 -2 5 4 6 2 12 -3 12 -6 0 -11 -7 -11 -15
0 -11 -5 -12 -25 -5 -14 5 -26 7 -26 5 -1 -3 -2 -9 -3 -14 0 -5 -5 -13 -10
-18 -5 -5 -6 -3 -2 5 4 6 2 12 -4 12 -6 0 -9 4 -5 9 3 5 0 13 -7 17 -7 4 -10
4 -6 -1 4 -4 2 -15 -5 -23 -10 -13 -9 -14 3 -7 12 7 13 6 3 -7 -7 -8 -9 -19
-5 -24 4 -4 0 -3 -10 4 -12 9 -18 10 -23 2 -5 -8 -14 -6 -28 7 -12 10 -17 12
-12 4 6 -11 4 -13 -8 -8 -18 7 -24 -8 -7 -16 6 -3 5 -4 -2 -3 -7 2 -21 -1 -32
-6 -13 -7 -16 -7 -11 1 5 8 -1 10 -19 5 -25 -6 -32 2 -27 30 1 5 -5 4 -13 -4
-18 -14 -22 -25 -6 -15 6 3 10 1 10 -4 0 -14 -17 -14 -25 -1 -4 6 -10 8 -15 5
-5 -3 -12 0 -16 6 -5 8 -3 9 6 4 9 -5 11 -4 6 4 -4 6 -12 9 -17 5 -5 -3 -7 -9
-4 -14 3 -5 0 -12 -6 -16 -7 -4 -9 -3 -6 2 3 6 2 16 -4 24 -7 12 -9 9 -9 -10
-1 -20 -2 -22 -10 -9 -13 22 -55 19 -54 -4 1 -9 -3 -14 -8 -11 -5 4 -8 14 -5
24 3 13 -2 16 -22 15 -25 -1 -31 -9 -15 -23 4 -4 4 -2 1 4 -3 6 0 11 7 11 8 0
12 -6 9 -14 -6 -16 -19 -17 -28 -3 -5 8 -12 7 -23 -2 -12 -10 -14 -10 -8 0 4
7 2 12 -8 12 -8 0 -16 -5 -18 -12 -3 -7 -7 -5 -11 6 -4 10 -3 15 3 11 6 -3 10
-2 10 3 0 6 -7 13 -16 16 -8 3 -12 2 -9 -4 3 -6 -1 -10 -10 -10 -10 0 -13 5
-9 12 4 7 3 8 -5 4 -6 -4 -9 -12 -6 -17 4 -5 -1 -9 -10 -9 -13 0 -14 4 -5 23
10 20 10 20 -9 -3 -10 -13 -18 -27 -16 -30 2 -3 -12 -6 -30 -6 -19 0 -33 4
-32 10 1 6 -5 10 -12 8 -26 -6 -60 19 -56 40 3 14 0 18 -10 14 -8 -3 -17 -1
-20 5 -4 5 -11 6 -17 3 -6 -4 -8 -3 -5 2 3 6 2 16 -3 24 -7 11 -11 11 -24 1
-9 -8 -16 -9 -16 -3 0 25 34 22 58 -5 14 -17 21 -21 18 -10 -3 9 0 17 6 17 6
0 9 3 6 6 -5 5 -14 7 -48 13 -3 1 2 6 10 12 12 9 12 10 -4 5 -11 -4 -23 -1
-29 6 -6 9 -7 8 -3 -5 5 -15 2 -17 -15 -12 -17 6 -20 4 -13 -6 7 -12 5 -12 -9
-1 -9 8 -22 10 -29 6 -9 -6 -9 -3 1 10 11 13 16 14 22 4 5 -7 9 -8 9 -3 0 6
-5 17 -10 25 -5 8 -10 10 -10 4 0 -7 -7 -15 -16 -18 -10 -4 -13 -2 -8 6 5 8 2
9 -10 5 -10 -4 -25 1 -38 13 -12 11 -25 17 -30 14 -16 -10 -30 7 -17 22 10 12
9 13 -6 8 -12 -5 -16 -4 -12 3 4 6 -1 14 -11 18 -9 3 -18 5 -18 3 -1 -2 -11 5
-23 16 -16 14 -24 16 -34 7 -14 -11 -27 -6 -27 11 0 5 5 6 12 2 7 -5 8 -3 3 6
-6 10 -11 9 -21 -5 -17 -22 -10 -35 16 -30 11 2 20 0 20 -4 0 -5 -15 -8 -34
-7 -31 1 -33 3 -25 24 12 31 11 41 -2 19 -7 -12 -18 -16 -41 -12 -34 6 -61 28
-50 41 4 5 0 3 -9 -4 -12 -9 -19 -9 -29 1 -12 10 -12 9 -2 -5 8 -9 9 -19 4
-22 -6 -3 -13 1 -16 10 -3 8 -11 12 -16 9 -6 -4 -19 -1 -28 6 -12 10 -11 7 3
-11 l20 -24 -27 17 c-26 16 -28 16 -28 0 0 -15 -2 -15 -15 3 -14 18 -14 18
-10 -3 2 -13 -1 -26 -7 -29 -6 -4 -8 -3 -5 3 4 6 0 19 -8 29 -13 19 -13 19
-12 -1 2 -16 -5 -19 -42 -21 -30 0 -49 -7 -59 -20 -12 -16 -14 -16 -9 -2 3 10
2 20 -3 23 -6 4 -10 -1 -10 -9 0 -20 -38 -16 -51 5 -7 12 -9 12 -9 -1 0 -8 -9
-21 -20 -28 -16 -10 -20 -10 -18 0 2 7 9 18 16 23 11 9 8 11 -11 10 -14 0 -29
-4 -33 -8 -5 -4 -2 -6 6 -4 8 2 12 2 8 0 -4 -2 -4 -12 -1 -21 3 -10 -1 -8 -11
6 -13 17 -21 20 -35 12 -10 -5 -21 -6 -25 -3 -12 12 -6 -13 7 -27 10 -12 9
-12 -6 0 -10 7 -15 20 -12 29 4 12 2 12 -9 -2 -13 -17 -14 -16 -12 8 0 16 6
23 14 20 7 -3 10 0 7 6 -4 5 -12 8 -18 6 -7 -2 -18 3 -26 12 -8 11 -8 7 2 -9
13 -23 13 -28 0 -45 -14 -19 -15 -19 -8 5 7 21 6 23 -7 13 -12 -11 -19 -8 -38
12 -22 23 -24 23 -36 7 -7 -9 -14 -12 -14 -6 0 5 5 15 12 22 16 16 -3 15 -24
-2 -10 -7 -14 -17 -10 -21 4 -5 1 -5 -7 0 -11 6 -9 12 10 27 24 19 24 19 2 13
-14 -4 -23 -2 -23 5 0 6 -5 8 -12 4 -7 -4 -8 -3 -4 4 4 7 2 12 -4 12 -6 0 -8
5 -5 10 3 6 1 10 -5 10 -6 0 -8 -13 -5 -32 6 -33 6 -33 -10 -10 -9 12 -21 19
-27 16 -5 -4 -21 0 -35 7 -20 11 -26 11 -33 -1 -8 -13 -10 -13 -11 0 -1 8 -1
18 0 22 0 4 -7 4 -16 1 -11 -4 -14 -3 -9 5 7 12 2 14 -39 16 -11 1 -26 5 -33
9 -7 5 -14 2 -18 -8 -6 -14 -8 -14 -19 2 -8 10 -17 15 -21 10 -4 -4 -2 -7 6
-7 10 0 10 -4 -1 -17 -12 -14 -12 -16 0 -8 10 5 12 4 7 -3 -11 -18 -21 -15
-58 15 -18 15 -30 23 -26 19 4 -5 3 -17 -3 -27 -8 -16 -5 -21 16 -29 14 -5 25
-12 25 -15 0 -4 -4 -4 -8 -1 -20 12 -67 14 -81 3 -14 -11 -14 -10 -1 7 14 18
13 19 -2 13 -14 -5 -23 3 -38 33 -12 23 -16 39 -9 38 6 -2 13 5 14 15 2 9 -1
17 -7 17 -6 0 -8 -7 -5 -14 4 -10 1 -13 -7 -10 -8 3 -13 12 -12 21 2 22 -20
28 -28 7 -5 -14 -4 -15 8 -5 11 9 14 7 14 -14 0 -14 -5 -25 -10 -25 -5 0 -6 5
-3 10 3 6 -1 10 -10 10 -12 0 -15 6 -10 19 3 11 1 22 -5 26 -6 3 -10 -4 -11
-17 -1 -23 -1 -23 -9 2 -4 14 -9 21 -9 15 -1 -5 -6 -2 -12 8 -6 10 -20 23 -32
28 l-22 10 22 -5 c13 -2 24 2 27 11 3 8 2 12 -3 8 -13 -8 -20 17 -10 36 6 13
4 16 -9 15 -10 0 -17 6 -16 15 1 12 -5 15 -20 12 -17 -4 -18 -3 -6 6 8 6 10
11 4 11 -25 0 -22 -15 8 -43 18 -16 26 -24 17 -18 -11 8 -19 7 -29 -2 -12 -10
-12 -9 0 6 12 17 12 18 -6 15 -16 -2 -19 3 -18 32 1 19 -1 29 -3 23 -3 -7 -16
-13 -29 -13 -14 0 -23 -4 -19 -9 3 -5 2 -12 -3 -15 -4 -2 -8 6 -8 18 0 18 5
22 21 19 16 -3 15 -2 -4 7 -19 8 -21 13 -11 25 9 10 9 15 1 15 -10 0 -15 -14
-12 -34 1 -5 -5 -6 -14 -2 -8 3 -22 9 -32 13 -10 4 -14 3 -9 -5 3 -6 2 -13 -3
-17 -6 -3 -8 4 -6 15 3 14 0 20 -8 17 -7 -2 -11 -12 -10 -22 1 -11 -2 -14 -9
-7 -7 7 -6 17 1 30 14 27 14 29 -5 36 -8 3 -12 2 -9 -4 9 -14 -8 -12 -30 4
-21 15 -49 10 -38 -7 4 -6 1 -7 -6 -3 -9 6 -8 13 6 28 18 20 18 21 -3 8 -19
-12 -24 -11 -39 3 -9 9 -21 17 -28 17 -6 0 -2 -7 9 -15z m-72 -13 c3 -5 -1 -9
-9 -9 -8 0 -12 4 -9 9 3 4 7 8 9 8 2 0 6 -4 9 -8z m27 -15 c-10 -9 -11 -8 -5
6 3 10 9 15 12 12 3 -3 0 -11 -7 -18z m83 -14 l17 -28 -19 22 c-11 12 -23 19
-27 15 -5 -4 -5 -1 -1 6 10 17 11 16 30 -15z m54 -14 c-3 -8 -7 -3 -11 10 -4
17 -3 21 5 13 5 -5 8 -16 6 -23z m42 -3 c-7 -7 -13 -7 -20 0 -6 6 -3 10 10 10
13 0 16 -4 10 -10z m-270 -27 c0 -5 4 -8 9 -4 5 3 13 0 17 -6 4 -8 3 -9 -4 -5
-18 11 -14 -5 4 -19 14 -9 14 -12 2 -12 -8 0 -22 13 -31 29 -9 15 -12 28 -7
28 6 0 10 -5 10 -11z m354 -17 c3 -5 -1 -9 -9 -9 -8 0 -15 4 -15 9 0 4 4 8 9
8 6 0 12 -4 15 -8z m146 -97 c0 -12 -19 -12 -23 0 -4 9 -1 12 9 8 7 -3 14 -7
14 -8z m26 -87 c3 -4 -1 -5 -10 -4 -8 1 -18 5 -22 8 -3 4 1 5 10 4 8 -1 18 -5
22 -8z m89 -77 c-3 -6 -11 -11 -16 -11 -5 0 -4 6 3 14 14 16 24 13 13 -3z
m242 -13 c-3 -8 -6 -5 -6 6 -1 11 2 17 5 13 3 -3 4 -12 1 -19z m-91 -9 c19
-22 19 -22 -2 -11 -12 6 -24 8 -28 4 -4 -3 -4 1 0 11 8 21 7 21 30 -4z m116
-1 c-7 -7 -12 -8 -12 -2 0 14 12 26 19 19 2 -3 -1 -11 -7 -17z m48 -13 c5 3
11 1 14 -4 4 -5 -2 -8 -11 -7 -9 2 -18 8 -19 15 -1 6 0 7 3 1 2 -5 9 -8 13 -5z
m74 -23 c2 -4 -4 -8 -14 -8 -10 0 -16 4 -14 8 3 4 9 8 14 8 5 0 11 -4 14 -8z
m790 -57 c-4 -8 -11 -12 -17 -8 -8 5 -7 8 1 11 7 2 9 9 6 14 -4 7 -2 8 4 4 6
-4 9 -13 6 -21z m-1600 -7 c-3 -4 -9 -8 -15 -8 -5 0 -9 4 -9 8 0 5 7 9 15 9 8
0 12 -4 9 -9z m986 2 c-8 -5 -19 -10 -25 -10 -5 0 -3 5 5 10 8 5 20 10 25 10
6 0 3 -5 -5 -10z m800 -15 c7 -8 16 -12 21 -10 4 3 13 -3 18 -14 14 -25 14
-31 1 -31 -5 0 -9 3 -9 8 3 19 -2 33 -10 27 -5 -3 -13 0 -17 7 -5 8 -10 6 -16
-8 -8 -17 -8 -17 -4 3 2 12 -1 24 -8 27 -8 3 -8 5 0 5 6 1 17 -6 24 -14z
m-770 -5 c0 -5 -2 -10 -4 -10 -3 0 -8 5 -11 10 -3 6 -1 10 4 10 6 0 11 -4 11
-10z m-985 -48 c-3 -3 -11 0 -18 7 -9 10 -8 11 6 5 10 -3 15 -9 12 -12z m-9
-45 c1 -9 -2 -15 -7 -11 -5 3 -7 9 -4 14 3 4 0 11 -5 13 -6 3 -5 4 1 3 7 -1
13 -10 15 -19z m1869 13 c3 -5 1 -10 -4 -10 -6 0 -11 5 -11 10 0 6 2 10 4 10
3 0 8 -4 11 -10z m-1835 -41 c0 -6 9 -9 19 -6 14 3 18 1 14 -9 -4 -11 -9 -11
-26 -2 -12 7 -26 11 -30 10 -5 -1 -6 2 -2 8 8 13 25 13 25 -1z m2879 -61 c-5
-10 -11 -18 -12 -18 -2 0 -3 8 -3 18 0 10 6 19 13 19 8 0 9 -6 2 -19z m-2783
-17 c-4 -5 -1 -11 6 -13 8 -3 6 -6 -4 -10 -11 -5 -15 -2 -13 10 5 23 4 22 11
22 3 0 3 -4 0 -9z m1884 -1 c0 -5 -2 -10 -4 -10 -3 0 -8 5 -11 10 -3 6 -1 10
4 10 6 0 11 -4 11 -10z m814 -20 c-6 -6 -10 -3 -10 10 0 13 4 16 10 10 7 -7 7
-13 0 -20z m-730 -13 c16 -12 16 -13 -3 -13 -11 0 -17 5 -14 10 4 5 -1 7 -11
3 -10 -4 -15 -3 -11 3 8 13 18 13 39 -3z m-1959 -7 c-3 -5 -1 -10 4 -10 15 0
14 -17 -2 -23 -9 -3 -13 2 -11 16 3 27 3 27 10 27 3 0 2 -4 -1 -10z m2149 2
c2 -4 -5 -9 -17 -9 -17 -2 -19 0 -7 7 18 12 18 12 24 2z m180 -4 c-3 -4 -11
-5 -19 -1 -21 7 -19 12 4 10 11 0 18 -5 15 -9z m86 -12 c0 -3 -4 -8 -10 -11
-5 -3 -10 -1 -10 4 0 6 5 11 10 11 6 0 10 -2 10 -4z m695 -6 c-3 -5 -11 -10
-16 -10 -6 0 -7 5 -4 10 3 6 11 10 16 10 6 0 7 -4 4 -10z m-3079 -30 c0 -12
-4 -16 -9 -11 -5 5 -6 14 -3 20 10 15 12 14 12 -9z m-6 -65 c-7 -8 -16 -13
-20 -10 -5 3 -11 1 -15 -5 -4 -6 -11 -8 -16 -4 -16 9 0 23 22 19 11 -2 22 2
26 11 3 8 8 13 11 10 3 -3 -1 -12 -8 -21z m3100 -27 c0 -9 -21 -22 -38 -24
-10 -2 -10 2 2 15 13 14 13 20 3 30 -9 10 -7 10 11 0 12 -8 22 -17 22 -21z
m-3305 -238 c3 -6 -1 -7 -9 -4 -18 7 -21 14 -7 14 6 0 13 -4 16 -10z m3313
-90 c4 -12 3 -13 -10 -3 -8 7 -17 10 -20 7 -3 -3 -9 -1 -12 4 -3 5 4 9 16 8
12 0 24 -8 26 -16z m-3378 -88 c0 -4 -5 -13 -12 -20 -9 -9 -9 -12 0 -12 15 0
15 -11 -2 -33 -8 -11 -20 -15 -31 -11 -12 5 -14 9 -4 15 7 4 14 15 15 24 4 28
13 45 24 45 5 0 10 -4 10 -8z m3344 -103 c-10 -16 -23 -9 -21 10 1 15 4 17 14
9 7 -5 10 -14 7 -19z m-3416 -33 c-7 -8 -15 -12 -17 -11 -5 6 10 25 20 25 5 0
4 -6 -3 -14z m-37 -47 c9 -17 8 -20 -2 -14 -9 6 -11 3 -6 -8 4 -11 2 -14 -8
-11 -7 3 -12 13 -10 22 2 9 4 20 4 25 2 13 10 7 22 -14z m3404 -118 c3 -5 2
-12 -3 -15 -5 -3 -9 1 -9 9 0 17 3 19 12 6z m60 -529 c-3 -3 -11 0 -18 7 -9
10 -8 11 6 5 10 -3 15 -9 12 -12z m59 -38 c3 -8 2 -12 -4 -9 -6 3 -10 10 -10
16 0 14 7 11 14 -7z m-4029 -154 c3 -5 2 -10 -4 -10 -5 0 -13 5 -16 10 -3 6
-2 10 4 10 5 0 13 -4 16 -10z m4301 -348 c-9 -2 -13 -9 -10 -15 4 -7 3 -8 -1
-4 -5 4 -11 20 -13 34 l-3 27 21 -19 c19 -17 20 -20 6 -23z m-4106 -36 c0 -2
-7 -7 -16 -10 -8 -3 -12 -2 -9 4 6 10 25 14 25 6z m4210 -116 c12 -7 10 -9 -8
-7 -12 0 -22 5 -22 9 0 11 12 10 30 -2z m13 -74 c4 -10 1 -13 -8 -9 -8 3 -12
9 -9 14 7 12 11 11 17 -5z m35 -121 c-3 -3 -9 2 -12 12 -6 14 -5 15 5 6 7 -7
10 -15 7 -18z m23 -62 c13 -16 12 -17 -3 -4 -17 13 -22 21 -14 21 2 0 10 -8
17 -17z m-4331 -63 c0 -5 -5 -10 -11 -10 -5 0 -7 5 -4 10 3 6 8 10 11 10 2 0
4 -4 4 -10z m-15 -60 c3 -5 1 -10 -4 -10 -6 0 -11 5 -11 10 0 6 2 10 4 10 3 0
8 -4 11 -10z m-75 -224 c0 -2 -8 -10 -17 -17 -16 -13 -17 -12 -4 4 13 16 21
21 21 13z m4588 -81 c-3 -3 -9 2 -12 12 -6 14 -5 15 5 6 7 -7 10 -15 7 -18z
m12 -57 c0 -6 7 -5 15 2 13 10 12 6 -2 -18 -20 -35 -30 -40 -30 -17 0 8 4 12
9 9 4 -3 8 0 8 5 0 6 -4 11 -9 11 -5 0 -11 7 -14 14 -4 10 -1 13 9 9 7 -3 14
-10 14 -15z m-4705 -59 c-4 -5 -13 -9 -21 -9 -8 0 -14 -5 -14 -11 0 -5 5 -7
12 -3 7 5 8 3 3 -5 -10 -17 -27 1 -20 20 3 8 15 15 25 16 11 1 18 -2 15 -8z
m4717 -6 c-9 -4 -10 -9 -2 -18 8 -9 6 -14 -5 -19 -10 -3 -13 -2 -10 5 4 5 2
15 -4 22 -7 10 -4 13 12 14 12 0 16 -1 9 -4z m-4726 -51 c-17 -16 -18 -16 -5
5 7 12 15 20 18 17 3 -2 -3 -12 -13 -22z m-86 -142 c0 -5 -5 -10 -11 -10 -5 0
-7 5 -4 10 3 6 8 10 11 10 2 0 4 -4 4 -10z m20 -15 c0 -2 -10 -9 -22 -15 -22
-11 -22 -10 -4 4 21 17 26 19 26 11z m4825 -94 c3 -5 0 -13 -6 -17 -7 -4 -9
-3 -5 4 3 6 -2 13 -11 15 -16 4 -16 5 -1 6 9 0 19 -3 23 -8z m-8 -37 c-3 -3
-12 -4 -19 -1 -8 3 -5 6 6 6 11 1 17 -2 13 -5z m8 -24 c3 -6 -1 -7 -9 -4 -18
7 -21 14 -7 14 6 0 13 -4 16 -10z m5 -50 c0 -5 -7 -7 -15 -4 -8 4 -15 8 -15
10 0 2 7 4 15 4 8 0 15 -4 15 -10z m67 -445 c0 -8 -4 -12 -9 -9 -5 3 -6 10 -3
15 9 13 12 11 12 -6z m-22 -15 c3 -5 1 -10 -4 -10 -6 0 -11 5 -11 10 0 6 2 10
4 10 3 0 8 -4 11 -10z m-4804 -153 c-10 -9 -11 -8 -5 6 3 10 9 15 12 12 3 -3
0 -11 -7 -18z m85 -35 c-6 -5 -36 23 -36 34 0 4 9 -1 20 -11 11 -10 18 -20 16
-23z m3698 30 c3 -5 -1 -9 -9 -9 -8 0 -12 4 -9 9 3 4 7 8 9 8 2 0 6 -4 9 -8z
m261 -2 c3 -5 1 -10 -4 -10 -6 0 -11 5 -11 10 0 6 2 10 4 10 3 0 8 -4 11 -10z
m-3928 -6 c-3 -3 -12 -4 -19 -1 -8 3 -5 6 6 6 11 1 17 -2 13 -5z m4245 -26
c-8 -8 -9 -4 -5 13 4 13 8 18 11 10 2 -7 -1 -18 -6 -23z m205 19 c0 -8 -6 -14
-14 -14 -9 0 -10 4 -2 14 6 7 12 13 14 13 1 0 2 -6 2 -13z m-3257 -7 c0 -5 -5
-10 -11 -10 -5 0 -7 5 -4 10 3 6 8 10 11 10 2 0 4 -4 4 -10z m250 4 c0 -8 -19
-13 -24 -6 -3 5 1 9 9 9 8 0 15 -2 15 -3z m70 2 c0 -3 -4 -8 -10 -11 -5 -3
-10 -1 -10 4 0 6 5 11 10 11 6 0 10 -2 10 -4z m1498 -12 c6 3 13 2 16 -2 3 -5
-4 -9 -16 -8 -12 0 -23 8 -25 16 -4 12 -3 13 5 1 5 -7 14 -11 20 -7z m198 4
c5 -7 2 -9 -8 -5 -9 3 -21 0 -27 -6 -9 -9 -11 -8 -6 6 8 19 30 23 41 5z m284
2 c7 11 10 11 10 2 0 -8 5 -10 13 -5 22 14 39 13 27 -2 -6 -8 -20 -12 -30 -10
-11 2 -22 -1 -26 -7 -7 -11 -24 8 -24 27 0 6 5 3 10 -5 9 -13 11 -13 20 0z
m100 -5 c0 -8 -2 -15 -4 -15 -2 0 -6 7 -10 15 -3 8 -1 15 4 15 6 0 10 -7 10
-15z m40 0 c0 -6 -6 -12 -13 -12 -8 0 -14 6 -14 12 0 6 6 12 14 12 7 0 13 -6
13 -12z m874 7 c3 -5 -1 -9 -9 -9 -8 0 -12 4 -9 9 3 4 7 8 9 8 2 0 6 -4 9 -8z
m86 -2 c0 -5 -5 -10 -11 -10 -5 0 -7 5 -4 10 3 6 8 10 11 10 2 0 4 -4 4 -10z
m-1640 -10 c0 -5 -5 -10 -11 -10 -5 0 -7 5 -4 10 3 6 8 10 11 10 2 0 4 -4 4
-10z m160 6 c0 -2 -6 -9 -14 -15 -11 -9 -16 -9 -22 0 -4 8 -3 9 4 5 7 -4 12
-2 12 3 0 6 5 11 10 11 6 0 10 -2 10 -4z m-2635 -45 c-6 -6 -18 -4 -30 6 -19
15 -19 15 4 8 18 -6 22 -4 16 6 -6 11 -5 12 6 2 8 -8 9 -16 4 -22z m1655 -5
c0 -2 -8 -10 -17 -17 -16 -13 -17 -12 -4 4 13 16 21 21 21 13z"/>
<path d="M1183 3753 c4 -3 1 -13 -6 -22 -11 -14 -10 -14 5 -2 16 12 16 31 1
31 -4 0 -3 -3 0 -7z"/>
<path d="M1420 5036 c0 -2 7 -6 15 -10 8 -3 15 -1 15 4 0 6 -7 10 -15 10 -8 0
-15 -2 -15 -4z"/>
<path d="M1635 4867 c-13 -10 -15 -16 -6 -21 18 -12 61 -14 55 -4 -3 5 -13 7
-21 4 -12 -5 -14 -1 -10 14 6 24 6 24 -18 7z"/>
<path d="M1108 4863 c7 -3 16 -2 19 1 4 3 -2 6 -13 5 -11 0 -14 -3 -6 -6z"/>
<path d="M1747 4754 c-3 -3 -1 -17 5 -30 9 -18 14 -21 25 -13 8 7 13 8 13 1 0
-5 6 -12 13 -15 7 -3 12 4 12 18 0 17 -3 21 -12 13 -8 -7 -16 -3 -25 11 -13
22 -20 25 -31 15z m23 -19 c7 -9 8 -15 2 -15 -5 0 -12 7 -16 15 -3 8 -4 15 -2
15 2 0 9 -7 16 -15z"/>
<path d="M1875 4741 c-3 -5 -2 -12 3 -15 5 -3 9 1 9 9 0 17 -3 19 -12 6z"/>
<path d="M2064 4720 c0 -10 6 -16 13 -13 7 3 13 9 13 13 0 4 -6 10 -13 13 -7
3 -13 -3 -13 -13z"/>
<path d="M2111 4728 c-2 -31 -1 -33 17 -33 9 -1 24 -5 32 -10 9 -5 8 0 -4 13
-10 12 -22 19 -27 17 -4 -3 -10 3 -12 12 -4 17 -5 17 -6 1z"/>
<path d="M2155 4730 c-3 -5 -1 -10 4 -10 6 0 11 5 11 10 0 6 -2 10 -4 10 -3 0
-8 -4 -11 -10z"/>
<path d="M2209 4692 c9 -18 45 -24 56 -9 3 4 2 5 -1 2 -4 -2 -20 3 -36 11 -28
14 -29 14 -19 -4z"/>
<path d="M2277 4673 c-7 -12 46 -66 56 -56 13 13 7 22 -10 16 -15 -6 -16 -4
-6 8 7 8 8 20 4 28 -6 10 -10 8 -16 -6 -7 -17 -7 -17 -14 1 -4 11 -10 15 -14
9z"/>
<path d="M2925 4649 c-4 -6 -5 -12 -2 -15 2 -3 7 2 10 11 7 17 1 20 -8 4z"/>
<path d="M1207 4637 c4 -6 -1 -8 -11 -4 -10 4 -15 3 -11 -3 3 -6 13 -10 21
-10 8 0 12 -4 9 -10 -3 -5 0 -10 7 -10 10 0 9 -3 -2 -11 -12 -8 -11 -9 6 -5
16 5 20 2 19 -12 0 -9 -5 -24 -10 -31 -5 -9 -4 -12 3 -7 5 3 12 3 15 -1 2 -5
2 -2 0 6 -2 8 2 11 12 7 24 -9 17 12 -14 45 -17 17 -28 36 -25 43 3 7 -2 13
-10 13 -8 0 -12 -5 -9 -10z"/>
<path d="M2417 4633 c-4 -3 -7 -13 -7 -22 1 -13 3 -13 11 2 11 19 8 33 -4 20z"/>
<path d="M2615 4630 c-3 -5 -1 -10 4 -10 6 0 11 5 11 10 0 6 -2 10 -4 10 -3 0
-8 -4 -11 -10z"/>
<path d="M2666 4631 c9 -9 45 -11 39 -2 -3 6 -14 9 -25 8 -10 -1 -17 -3 -14
-6z"/>
<path d="M2557 4617 c-3 -8 1 -14 8 -14 7 0 11 6 8 14 -3 7 -6 13 -8 13 -2 0
-5 -6 -8 -13z"/>
<path d="M3160 4549 c-13 -9 -12 -10 2 -5 10 3 20 1 23 -5 4 -5 10 -7 15 -4 4
3 10 -1 13 -9 4 -9 14 -12 28 -9 20 6 20 7 -7 18 -16 7 -32 10 -36 8 -5 -2 -8
1 -8 6 0 14 -11 14 -30 0z"/>
<path d="M3296 4508 c3 -5 10 -6 15 -3 13 9 11 12 -6 12 -8 0 -12 -4 -9 -9z"/>
<path d="M1275 4470 c-3 -5 -1 -10 4 -10 6 0 11 5 11 10 0 6 -2 10 -4 10 -3 0
-8 -4 -11 -10z"/>
<path d="M4260 4470 c14 -9 7 -15 -15 -10 -5 1 -4 -4 3 -12 11 -11 14 -10 22
2 10 16 4 30 -13 30 -7 0 -6 -4 3 -10z"/>
<path d="M1318 4433 c7 -3 16 -2 19 1 4 3 -2 6 -13 5 -11 0 -14 -3 -6 -6z"/>
<path d="M3414 4425 c14 -11 16 -15 5 -15 -11 0 -12 -2 -1 -9 8 -4 13 -12 13
-17 0 -5 8 -9 18 -9 10 0 25 -6 34 -13 12 -10 21 -11 36 -2 26 13 26 17 0 31
-13 7 -19 7 -15 1 4 -6 -2 -10 -14 -9 -10 1 -22 7 -24 14 -3 7 -13 10 -23 7
-17 -5 -17 -5 0 9 9 8 17 18 17 22 0 4 -6 2 -14 -4 -10 -8 -16 -9 -21 -1 -3 5
-12 10 -18 10 -7 0 -3 -7 7 -15z m41 -35 c-3 -5 -12 -10 -18 -10 -7 0 -6 4 3
10 19 12 23 12 15 0z"/>
<path d="M3470 4410 c0 -5 5 -10 10 -10 6 0 10 5 10 10 0 6 -4 10 -10 10 -5 0
-10 -4 -10 -10z"/>
<path d="M4560 4409 c0 -5 5 -7 10 -4 6 3 10 8 10 11 0 2 -4 4 -10 4 -5 0 -10
-5 -10 -11z"/>
<path d="M4060 4390 c0 -5 -7 -7 -15 -4 -11 5 -13 2 -9 -10 5 -12 10 -14 19
-6 6 5 15 7 19 3 4 -4 4 0 0 10 -7 19 -14 22 -14 7z"/>
<path d="M3640 4376 c0 -2 7 -7 16 -10 8 -3 12 -2 9 4 -6 10 -25 14 -25 6z"/>
<path d="M3927 4366 c-4 -10 -1 -13 8 -9 8 3 12 9 9 14 -7 12 -11 11 -17 -5z"/>
<path d="M3966 4363 c-6 -14 -5 -15 5 -6 7 7 10 15 7 18 -3 3 -9 -2 -12 -12z"/>
<path d="M1290 4130 c0 -6 -5 -8 -12 -4 -6 4 -8 3 -4 -4 3 -6 1 -14 -5 -18 -9
-5 -7 -11 6 -21 11 -7 14 -13 7 -13 -6 0 -20 -10 -32 -22 -11 -12 -20 -17 -20
-11 0 7 7 19 16 27 14 15 14 16 -5 13 -11 -2 -24 -7 -28 -12 -5 -4 -2 -5 6 0
10 6 12 2 7 -13 -4 -11 -2 -23 4 -27 5 -3 10 -11 10 -18 0 -8 -3 -8 -12 1 -15
15 -28 15 -28 1 0 -5 4 -8 9 -4 5 3 12 1 16 -5 3 -5 2 -10 -3 -10 -6 0 -12 -6
-15 -13 -3 -8 1 -14 8 -14 8 0 13 3 12 6 -4 13 36 60 46 54 6 -3 7 -1 3 6 -4
6 0 14 8 17 9 3 14 10 11 14 -3 5 -1 11 5 15 6 4 8 11 5 16 -4 5 4 13 17 18
21 9 21 11 1 15 -5 1 -14 5 -20 9 -8 5 -13 4 -13 -3z m11 -23 c-6 -8 -8 -17
-4 -21 4 -4 0 -4 -10 0 -14 5 -15 9 -6 20 6 8 16 14 21 14 7 0 6 -5 -1 -13z
m-21 -50 c0 -2 -10 -12 -22 -23 l-23 -19 19 23 c18 21 26 27 26 19z"/>
<path d="M4556 4051 c-4 -5 -2 -12 3 -15 5 -4 12 -2 15 3 4 5 2 12 -3 15 -5 4
-12 2 -15 -3z"/>
<path d="M1206 3942 c-9 -15 12 -54 25 -47 12 8 11 18 -4 40 -10 12 -16 14
-21 7z"/>
<path d="M1134 3786 c1 -8 5 -18 8 -22 4 -3 5 1 4 10 -1 8 -5 18 -8 22 -4 3
-5 -1 -4 -10z"/>
<path d="M4570 3650 c0 -5 5 -10 11 -10 5 0 7 5 4 10 -3 6 -8 10 -11 10 -2 0
-4 -4 -4 -10z"/>
<path d="M1036 3563 c-6 -14 -5 -15 5 -6 7 7 10 15 7 18 -3 3 -9 -2 -12 -12z"/>
<path d="M4530 3571 c0 -4 13 -7 30 -7 16 0 28 2 25 4 -8 9 -55 11 -55 3z"/>
<path d="M1015 3530 c-3 -5 -1 -10 4 -10 6 0 11 5 11 10 0 6 -2 10 -4 10 -3 0
-8 -4 -11 -10z"/>
<path d="M1013 3422 c0 -12 5 -22 9 -22 11 0 10 12 -2 30 -7 12 -9 10 -7 -8z"/>
<path d="M4505 3394 c2 -4 0 -14 -5 -24 -6 -12 -5 -17 4 -17 13 0 15 32 3 42
-4 3 -5 2 -2 -1z"/>
<path d="M4531 3374 c0 -11 3 -14 6 -6 3 7 2 16 -1 19 -3 4 -6 -2 -5 -13z"/>
<path d="M985 3369 c-5 -7 -4 -10 3 -5 6 3 14 1 18 -5 7 -11 -15 -31 -26 -24
-4 2 -7 -2 -7 -10 0 -11 4 -12 14 -4 7 6 13 8 13 3 0 -5 5 -1 11 10 14 22 -13
58 -26 35z"/>
<path d="M4445 3240 c-3 -5 -1 -10 4 -10 6 0 11 5 11 10 0 6 -2 10 -4 10 -3 0
-8 -4 -11 -10z"/>
<path d="M4475 3240 c-3 -5 -2 -18 4 -27 7 -14 9 -12 8 10 -2 30 -3 31 -12 17z"/>
<path d="M4470 3186 c0 -2 8 -10 18 -17 15 -13 16 -12 3 4 -13 16 -21 21 -21
13z"/>
<path d="M4496 3108 c3 -4 11 -5 19 -1 21 7 19 12 -4 10 -11 0 -18 -5 -15 -9z"/>
<path d="M544 3093 c2 -10 -2 -22 -8 -26 -7 -6 -6 -7 3 -5 16 5 24 35 11 43
-5 3 -7 -3 -6 -12z"/>
<path d="M4525 3090 c-3 -5 -1 -10 4 -10 6 0 11 5 11 10 0 6 -2 10 -4 10 -3 0
-8 -4 -11 -10z"/>
<path d="M538 3023 c7 -3 16 -2 19 1 4 3 -2 6 -13 5 -11 0 -14 -3 -6 -6z"/>
<path d="M4705 2890 c3 -5 8 -10 11 -10 2 0 4 5 4 10 0 6 -5 10 -11 10 -5 0
-7 -4 -4 -10z"/>
<path d="M4783 2722 c16 -17 17 -37 4 -58 -4 -7 0 -15 9 -18 8 -3 12 -10 9
-16 -4 -6 1 -7 10 -3 9 3 13 9 8 12 -11 8 -16 30 -16 69 1 26 -3 32 -20 32
-19 0 -19 -1 -4 -18z"/>
<path d="M610 2609 c0 -5 5 -7 10 -4 6 3 10 8 10 11 0 2 -4 4 -10 4 -5 0 -10
-5 -10 -11z"/>
<path d="M628 2573 c7 -3 16 -2 19 1 4 3 -2 6 -13 5 -11 0 -14 -3 -6 -6z"/>
<path d="M710 2440 c0 -5 5 -10 11 -10 5 0 7 5 4 10 -3 6 -8 10 -11 10 -2 0
-4 -4 -4 -10z"/>
<path d="M4980 2370 c-9 -6 -10 -10 -3 -10 6 0 15 5 18 10 8 12 4 12 -15 0z"/>
<path d="M4947 2354 c-4 -4 -3 -12 1 -18 4 -6 7 -14 7 -18 0 -14 10 -13 35 6
14 10 18 16 10 13 -8 -2 -22 2 -31 9 -9 8 -19 11 -22 8z m22 -18 c9 -11 9 -16
-1 -22 -7 -4 -10 -4 -6 1 4 4 3 14 -3 22 -6 7 -9 13 -6 13 2 0 10 -6 16 -14z"/>
<path d="M5044 2269 c-3 -6 -1 -16 5 -22 9 -9 10 -7 5 7 -6 15 -4 17 6 11 9
-5 11 -4 6 3 -9 15 -13 15 -22 1z"/>
<path d="M800 2239 c0 -5 5 -7 10 -4 6 3 10 8 10 11 0 2 -4 4 -10 4 -5 0 -10
-5 -10 -11z"/>
<path d="M780 2210 c0 -5 7 -7 15 -4 8 4 15 8 15 10 0 2 -7 4 -15 4 -8 0 -15
-4 -15 -10z"/>
<path d="M750 2156 c0 -2 9 -6 20 -9 11 -3 18 -1 14 4 -5 9 -34 13 -34 5z"/>
<path d="M5105 2129 c-3 -4 2 -6 10 -5 21 3 28 13 10 13 -9 0 -18 -4 -20 -8z"/>
<path d="M5065 2111 c2 -9 4 -18 5 -21 1 -3 2 -9 1 -13 -1 -4 8 -3 19 3 11 6
20 16 19 23 0 9 -2 9 -6 0 -7 -20 -22 -15 -18 5 2 11 -3 19 -10 19 -7 0 -11
-7 -10 -16z"/>
<path d="M747 2085 c-4 -8 -1 -17 5 -21 7 -4 8 -3 4 4 -4 7 -2 12 3 12 6 0 11
5 11 10 0 15 -17 12 -23 -5z"/>
<path d="M5108 2070 c-16 -29 -16 -30 5 -45 12 -8 17 -15 12 -15 -5 0 -4 -5 3
-12 8 -8 8 -15 2 -23 -7 -9 -5 -17 6 -26 15 -12 16 -11 9 10 -4 14 -3 21 2 18
6 -4 19 0 29 9 18 14 18 15 -3 5 -13 -7 -24 -7 -27 -2 -4 5 0 12 6 14 10 4 10
6 1 6 -7 1 -10 8 -7 19 4 11 3 13 -3 5 -6 -9 -12 -7 -21 7 -7 11 -9 20 -4 20
4 0 8 9 9 20 2 26 1 25 -19 -10z"/>
<path d="M5235 1860 c-3 -6 -19 -8 -36 -5 -30 6 -38 -5 -16 -23 10 -8 21 -5
42 13 17 13 27 24 23 25 -4 0 -10 -5 -13 -10z m-25 -16 c0 -8 -19 -13 -24 -6
-3 5 1 9 9 9 8 0 15 -2 15 -3z"/>
<path d="M5200 1805 c-7 -9 -10 -18 -7 -22 4 -3 2 -12 -3 -18 -7 -9 -7 -14 3
-18 7 -3 23 11 37 32 13 20 16 30 8 23 -10 -8 -19 -9 -22 -3 -3 5 0 12 6 14 8
4 9 6 2 6 -6 1 -17 -6 -24 -14z m13 -20 c4 -8 3 -16 -1 -19 -4 -3 -9 4 -9 15
-2 23 3 25 10 4z"/>
<path d="M596 1745 c-9 -26 -7 -32 5 -12 6 10 9 21 6 23 -2 3 -7 -2 -11 -11z"/>
<path d="M573 1667 c0 -7 -2 -17 -4 -23 -2 -7 0 -14 5 -15 11 -5 16 40 6 46
-4 2 -7 -1 -7 -8z"/>
<path d="M545 1609 c-4 -6 -5 -12 -2 -15 2 -3 7 2 10 11 7 17 1 20 -8 4z"/>
<path d="M5263 1593 c4 -3 2 -12 -4 -20 -9 -9 -8 -13 0 -13 6 0 11 5 11 11 0
5 6 7 13 3 8 -5 8 -2 -2 9 -7 9 -16 17 -19 17 -3 0 -2 -3 1 -7z"/>
<path d="M470 1430 c0 -5 5 -10 11 -10 5 0 7 5 4 10 -3 6 -8 10 -11 10 -2 0
-4 -4 -4 -10z"/>
<path d="M461 1381 c-10 -6 -9 -10 3 -14 8 -3 18 -2 21 3 8 13 -9 20 -24 11z"/>
<path d="M366 1092 c-4 -7 -2 -12 4 -12 6 0 8 -5 4 -12 -5 -9 -2 -9 9 1 18 14
23 26 8 17 -5 -4 -11 -1 -13 6 -3 9 -6 9 -12 0z"/>
<path d="M347 1049 c7 -7 15 -10 18 -7 3 3 -2 9 -12 12 -14 6 -15 5 -6 -5z"/>
<path d="M290 896 c0 -8 -6 -17 -12 -19 -10 -4 -10 -6 -1 -6 7 -1 17 8 23 19
7 14 7 20 0 20 -5 0 -10 -6 -10 -14z"/>
<path d="M260 848 c0 -4 4 -8 9 -8 6 0 12 4 15 8 3 5 -1 9 -9 9 -8 0 -15 -4
-15 -9z"/>
<path d="M210 730 c0 -5 5 -10 11 -10 5 0 7 5 4 10 -3 6 -8 10 -11 10 -2 0 -4
-4 -4 -10z"/>
<path d="M158 618 c10 -13 10 -17 0 -21 -9 -4 -9 -6 -1 -6 20 -2 24 16 5 30
-15 13 -16 12 -4 -3z"/>
<path d="M5373 535 c0 -8 5 -15 10 -15 5 0 4 -7 -3 -15 -13 -15 -6 -35 13 -35
8 0 7 3 -2 9 -7 5 -10 14 -7 20 4 6 11 9 16 6 4 -3 3 6 -3 20 -13 28 -24 32
-24 10z"/>
<path d="M95 470 c-3 -5 -1 -10 5 -10 6 0 8 -5 5 -10 -4 -6 -11 -7 -17 -4 -7
4 -8 2 -4 -5 4 -6 2 -18 -4 -26 -10 -11 -10 -15 -1 -15 7 0 9 -5 5 -12 -4 -6
-3 -8 4 -4 6 3 13 2 17 -4 4 -6 12 -7 18 -3 12 8 17 9 38 12 5 0 8 5 4 11 -3
5 -11 7 -19 4 -14 -5 -34 32 -30 59 2 18 -11 23 -21 7z m15 -60 c0 13 2 13 9
0 6 -8 7 -18 4 -23 -6 -10 -33 11 -33 27 0 6 5 4 10 -4 9 -13 10 -13 10 0z"/>
<path d="M35 421 c-6 -11 13 -26 22 -17 4 3 1 6 -6 6 -7 0 -9 5 -6 10 3 6 4
10 1 10 -3 0 -7 -4 -11 -9z"/>
<path d="M2390 400 c0 -5 5 -10 11 -10 5 0 7 5 4 10 -3 6 -8 10 -11 10 -2 0
-4 -4 -4 -10z"/>
<path d="M4705 390 c-15 -16 -21 -18 -34 -7 -14 11 -14 10 -2 -6 10 -12 17
-15 25 -7 14 14 29 13 20 -2 -4 -7 -3 -8 5 -4 6 4 9 11 6 16 -3 4 0 10 7 12 8
3 9 6 1 11 -6 4 -18 -2 -28 -13z"/>
<path d="M1420 379 l-25 -20 25 12 c14 7 29 12 33 11 5 -1 6 2 2 8 -8 13 -5
13 -35 -11z"/>
<path d="M2186 392 c-3 -5 1 -9 9 -9 8 0 12 4 9 9 -3 4 -7 8 -9 8 -2 0 -6 -4
-9 -8z"/>
<path d="M4555 389 c-4 -6 -5 -12 -2 -15 2 -3 7 2 10 11 7 17 1 20 -8 4z"/>
<path d="M5180 396 c0 -2 8 -10 18 -17 15 -13 16 -12 3 4 -13 16 -21 21 -21
13z"/>
<path d="M629 373 c-13 -16 -12 -17 4 -4 16 13 21 21 13 21 -2 0 -10 -8 -17
-17z"/>
<path d="M1347 371 c-11 -14 -10 -14 6 -2 12 9 17 10 17 2 0 -7 5 -9 10 -6 15
9 12 22 -5 22 -8 0 -21 -7 -28 -16z"/>
<path d="M3561 374 c0 -11 3 -14 6 -6 3 7 2 16 -1 19 -3 4 -6 -2 -5 -13z"/>
<path d="M4505 379 c-4 -6 -5 -12 -2 -15 2 -3 7 2 10 11 7 17 1 20 -8 4z"/>
<path d="M4855 379 c-4 -6 -5 -12 -2 -15 2 -3 7 2 10 11 7 17 1 20 -8 4z"/>
<path d="M2917 352 c-10 -10 -17 -23 -17 -28 0 -5 5 -1 11 9 6 9 14 15 18 13
4 -3 8 1 8 9 0 19 -1 19 -20 -3z"/>
</g>
</svg>
